<svg xmlns="http://www.w3.org/2000/svg" version="1.1" xmlns:xlink="http://www.w3.org/1999/xlink" xmlns:svgjs="http://svgjs.dev/svgjs" width="1500" height="1500" viewBox="0 0 1500 1500"><rect width="1500" height="1500" fill="#000000"></rect><g transform="matrix(0.6666666666666666,0,0,0.6666666666666666,249.39393939393932,539.0355896218721)"><svg viewBox="0 0 396 167" data-background-color="#000000" preserveAspectRatio="xMidYMid meet" height="632" width="1500" xmlns="http://www.w3.org/2000/svg" xmlns:xlink="http://www.w3.org/1999/xlink"><g id="tight-bounds" transform="matrix(1,0,0,1,0.24000000000003752,0.11801392360928276)"><svg viewBox="0 0 395.5199999999999 166.76397215278143" height="166.76397215278143" width="395.5199999999999"><g><svg viewBox="0 0 397.4975999999999 167.59779201354533" height="166.76397215278143" width="395.5199999999999"><g><rect width="397.4975999999999" height="3.0357350612696608" x="0" y="94.20194275683262" fill="#dedede" opacity="1" stroke-width="0" stroke="transparent" fill-opacity="1" class="rect-yte-0" data-fill-palette-color="secondary" rx="1%" id="yte-0" data-palette-color="#dedede"></rect></g><g transform="matrix(1,0,0,1,0.9887999999999693,105.18462824027417)"><svg viewBox="0 0 395.52 62.41316377327115" height="62.41316377327115" width="395.52"><g id="textblocktransform"><svg viewBox="0 0 395.52 62.41316377327115" height="62.41316377327115" width="395.52" id="textblock"><g><svg viewBox="0 0 395.52 33.66267821452365" height="33.66267821452365" width="395.52"><g transform="matrix(1,0,0,1,0,0)"><svg width="395.52" viewBox="2.45 -25.2 300.17 25.55" height="33.66267821452365" data-palette-color="#89939e">
<path d="M11.85-25.15Q14.9-25.15 17.95-23.95L17.95-23.95 17.3-20.25 16.7-20.1Q15.3-21.2 14.05-21.73 12.8-22.25 11.45-22.25L11.45-22.25Q9.3-22.25 8.05-21.13 6.8-20 6.8-18.55L6.8-18.55Q6.8-17.1 8.03-16.2 9.25-15.3 11.8-14.2L11.8-14.2Q14.05-13.2 15.38-12.4 16.7-11.6 17.68-10.28 18.65-8.95 18.65-7.05L18.65-7.05Q18.65-5.1 17.6-3.43 16.55-1.75 14.53-0.73 12.5 0.3 9.7 0.3L9.7 0.3Q7.95 0.3 6.03-0.13 4.1-0.55 2.45-1.4L2.45-1.4 2.9-5.35 3.4-5.55Q4.8-4.15 6.68-3.38 8.55-2.6 10.15-2.6L10.15-2.6Q12.25-2.6 13.6-3.73 14.95-4.85 14.95-6.45L14.95-6.45Q14.95-7.95 13.73-8.85 12.5-9.75 9.9-10.95L9.9-10.95Q7.75-11.9 6.38-12.7 5-13.5 4.05-14.83 3.1-16.15 3.1-18.05L3.1-18.05Q3.1-20.05 4.17-21.65 5.25-23.25 7.23-24.2 9.2-25.15 11.85-25.15L11.85-25.15ZM36.4-24.9L45.15 0 41.4 0 40.8-2.7 39.5-6.4 33.55-6.45 28.25-6.4 26.9-2.9 26.2 0 22.5 0 32.1-24.9 36.4-24.9ZM33.85-9.4L38.45-9.45 34.3-21.25 34-21.25 29.45-9.45 33.85-9.4ZM55.09-24.9L54.95-7.8 55.05 0 51.34 0 51.49-7.5 51.34-24.9 55.09-24.9ZM85.09-25L84.94-7.45 84.99 0 80.99 0 67.89-19 67.64-19 67.59-8.3 67.69 0 64.29 0 64.44-7.35 64.34-24.9 68.29-24.9 81.39-5.9 81.74-5.9 81.64-24.75 85.09-25ZM108.94-24.9L109.14-24.6 108.89-21.45 104.24-21.8 101.74-21.8 101.59-7.8 101.74 0 97.99 0 98.14-7.5 98.04-21.8 95.54-21.8 90.79-21.45 90.49-21.8 90.79-24.9 108.94-24.9ZM133.19-25.15Q137.34-25.15 140.39-23.4L140.39-23.4 139.69-19.95 139.24-19.8Q137.99-20.85 136.34-21.45 134.69-22.05 132.79-22.05L132.79-22.05Q129.09-22.05 127.14-19.68 125.19-17.3 125.19-12.6L125.19-12.6Q125.19-7.85 127.14-5.35 129.09-2.85 132.79-2.85L132.79-2.85Q134.59-2.85 136.41-3.48 138.24-4.1 139.69-5.15L139.69-5.15 140.14-5 139.79-1.55Q136.39 0.3 132.64 0.3L132.64 0.3Q127.14 0.3 124.19-2.98 121.24-6.25 121.24-12.3L121.24-12.3Q121.24-18.45 124.36-21.8 127.49-25.15 133.19-25.15L133.19-25.15ZM156.28-25.2Q161.73-25.2 164.66-22 167.58-18.8 167.58-12.95L167.58-12.95Q167.58-6.6 164.46-3.13 161.33 0.35 155.53 0.35L155.53 0.35Q150.13 0.35 147.18-2.93 144.23-6.2 144.23-12.25L144.23-12.25Q144.23-18.45 147.38-21.83 150.53-25.2 156.28-25.2L156.28-25.2ZM155.93-22.05Q151.98-22.05 150.06-19.8 148.13-17.55 148.13-12.7L148.13-12.7Q148.13-7.5 150.03-5.15 151.93-2.8 155.83-2.8L155.83-2.8Q159.83-2.8 161.78-5.1 163.73-7.4 163.73-12.3L163.73-12.3Q163.73-17.35 161.81-19.7 159.88-22.05 155.93-22.05L155.93-22.05ZM198.28-24.9L200.83 0 197.48 0 196.93-7.6 195.58-19.1 195.28-19.1 188.13-2.8 185.18-2.8 178.43-19.1 178.13-19.1 176.83-7.9 176.13 0 172.93 0 175.68-24.9 180.03-24.9 181.28-21.15 186.73-7.75 187.03-7.75 192.73-21.35 194.03-24.9 198.28-24.9ZM216.98-24.95Q220.93-24.95 223.05-23.05 225.18-21.15 225.18-17.55L225.18-17.55Q225.18-13.35 222.5-10.98 219.83-8.6 215.13-8.6L215.13-8.6 212.08-8.6 212.08-7.8 212.18 0 208.48 0 208.63-7.5 208.48-24.9 216.98-24.95ZM216.33-11.5Q221.28-12.35 221.28-17.25L221.28-17.25Q221.28-19.6 219.95-20.75 218.63-21.9 215.98-22L215.98-22 212.18-21.95 212.13-11.6 216.33-11.5ZM239.93-24.9L248.68 0 244.93 0 244.33-2.7 243.03-6.4 237.08-6.45 231.78-6.4 230.43-2.9 229.73 0 226.03 0 235.63-24.9 239.93-24.9ZM237.38-9.4L241.98-9.45 237.83-21.25 237.53-21.25 232.98-9.45 237.38-9.4ZM275.67-25L275.52-7.45 275.57 0 271.57 0 258.47-19 258.22-19 258.17-8.3 258.27 0 254.87 0 255.02-7.35 254.92-24.9 258.87-24.9 271.97-5.9 272.32-5.9 272.22-24.75 275.67-25ZM293.37-8.7L293.32-7.15 293.47 0 289.72 0 289.92-7.15 289.87-8.7 281.42-24.9 285.52-24.9 286.02-23.45 291.62-12.75 291.87-12.75 297.97-23.3 298.62-24.9 302.62-24.9 293.37-8.7Z" opacity="1" transform="matrix(1,0,0,1,0,0)" fill="#89939e" class="wordmark-text-0" data-fill-palette-color="primary" id="text-0"></path></svg></g></svg></g><g transform="matrix(1,0,0,1,184.9778001865423,41.60962863669554)"><svg viewBox="0 0 25.564399626915385 20.803535136575615" height="20.803535136575615" width="25.564399626915385"><g transform="matrix(1,0,0,1,0,0)"><svg width="25.564399626915385" viewBox="2.25 -35.45 44.3 36.050000000000004" height="20.803535136575615" data-palette-color="#dedede"><path d="M12.7 0.55L12.7 0.55Q9.03 0.55 6.28-0.68 3.53-1.9 2.25-3.25L2.25-3.25 4.8-8.5Q5.33-7.83 6.46-6.98 7.6-6.13 9.11-5.49 10.63-4.85 12.25-4.85L12.25-4.85Q14.13-4.85 15.51-5.9 16.9-6.95 16.9-9L16.9-9Q16.9-11.03 15.46-12.21 14.03-13.4 11.55-14.9L11.55-14.9Q9.53-16.13 7.58-17.51 5.63-18.9 4.34-20.91 3.05-22.93 3.05-26L3.05-26Q3.05-30.13 5.69-32.79 8.33-35.45 13.35-35.45L13.35-35.45Q15.9-35.45 17.69-34.85 19.48-34.25 20.59-33.48 21.7-32.7 22.25-32.2L22.25-32.2 19.45-27.1Q19.1-27.6 18.28-28.33 17.45-29.05 16.25-29.6 15.05-30.15 13.6-30.15L13.6-30.15Q11.58-30.15 10.56-28.99 9.55-27.83 9.55-26.25L9.55-26.25Q9.55-24.23 11.04-22.95 12.53-21.68 14.65-20.4L14.65-20.4Q17-19 19-17.59 21-16.18 22.23-14.21 23.45-12.25 23.45-9.2L23.45-9.2Q23.45-4.63 20.58-2.04 17.7 0.55 12.7 0.55ZM38.7 0.6L38.7 0.6Q34.72 0.6 32.22-1.19 29.72-2.98 28.54-5.93 27.35-8.88 27.35-12.35L27.35-12.35Q27.35-15.8 28.67-18.8 30-21.8 32.6-23.65 35.2-25.5 39.05-25.5L39.05-25.5Q41.2-25.5 42.95-25.05 44.7-24.6 46.35-23.25L46.35-23.25 44.3-17.95Q43.55-19.07 42.11-19.69 40.67-20.3 39.4-20.3L39.4-20.3Q33.95-20.3 33.95-12.4L33.95-12.4Q33.95-8.25 35.31-6.38 36.67-4.5 39.4-4.5L39.4-4.5Q41.2-4.5 42.57-5.19 43.95-5.88 44.65-6.65L44.65-6.65 46.55-2.2Q45.85-1.45 43.8-0.43 41.75 0.6 38.7 0.6Z" opacity="1" transform="matrix(1,0,0,1,0,0)" fill="#dedede" class="slogan-text-1" data-fill-palette-color="secondary" id="text-1"></path>
</svg></g></svg></g></svg></g></svg></g><g transform="matrix(1,0,0,1,128.82378197667617,0)"><svg viewBox="0 0 139.85003604664757 86.25499233466074" height="86.25499233466074" width="139.85003604664757"><g><svg xmlns="http://www.w3.org/2000/svg" xmlns:xlink="http://www.w3.org/1999/xlink" version="1.1" x="8" y="0" viewBox="3.616 17.696 92.768 64.608" enable-background="new 0 0 100 100" xml:space="preserve" height="86.25499233466074" width="123.85003604664757" class="icon-icon-0" data-fill-palette-color="accent" id="icon-0"><polygon points="53.797,82.304 3.616,17.696 62.855,17.696 96.384,40.059 " fill="#dedede" data-fill-palette-color="accent"></polygon></svg></g></svg></g><g><rect width="52.29066197667619" height="3.0357350612696608" y="82.21925727339108" x="268.67381802332375" fill="#dedede" data-fill-palette-color="secondary"></rect><rect width="52.29066197667619" height="3.0357350612696608" y="82.21925727339108" x="76.53311999999998" fill="#dedede" data-fill-palette-color="secondary"></rect></g></svg></g><defs></defs></svg><rect width="395.5199999999999" height="166.76397215278143" fill="none" stroke="none" visibility="hidden"></rect></g></svg></g></svg>